<?xml version="1.0"?>
<svg xmlns:rdf="http://www.w3.org/1999/02/22-rdf-syntax-ns#" xmlns="http://www.w3.org/2000/svg" xmlns:cc="http://creativecommons.org/ns#" xmlns:dc="http://purl.org/dc/elements/1.1/" xmlns:svg="http://www.w3.org/2000/svg" id="svg2" viewBox="0 0 543.75 1096.6" version="1.1">
  <g id="layer2" transform="translate(-64.661 45.042)">
    <g id="g3641">
      <g id="g2856" transform="matrix(.65068 0 0 .65068 -65.242 158.22)">
        <path id="path4060" d="m513.38-233.86-0.96406 65.167 14.13 0.87359c22.435-0.66586 21.347 66.672 3.7658 55.798v10.439c8.1452 7.9 18.645-0.74435 22.551 32.192l11.75 9.5659c12.105 11.239 10.812 58.305 38.775 74.568l109.56 58.599c36.542 27.646 48.054 51.009 52.469 70.274 8.3229 21.712 14.369 45.671 19.06 62.584 1.8365 6.6211 0.76756 13.811 9.5999 16.627 10.597 7.4887 17.735 30.096 27.036 30.295l36.587 0.78318c15.237 22.004 14.702 45.617-2.3494 45.617l-33.172 0.76771c-2.0144 7.8228-5.0194 15.208-10.439 21.324-6.5677 5.4686-24.027 8.9481-24.027 8.9481 0.0236 31.228 6.8508 75.544 0.60223 95.793 3.1751 3.1751-16.938 6.8811-23.063 11.057-4.3019 2.933-72.552 3.555-73.965 1.2355-5.8309-4.3399-12.246-6.928-14.024-23.425-5.3306-80.061-5.2727-56.973-5.2727-82.823l-17.91-4.48c-20.46-4.57-15-16.54-17.26-26.3l-42.764-0.5428c-16.916-10.807-14.321-36.336 0.41486-48.096h33.302s5.6489-20.835 17.39-28.693l7.8501-4.4516c11.303-6.4099 13.788-64.903-51.564-50.781 0 0-48.516 10.064-72.639 15.697-63.171 14.75-102.9-2.9827-102.9-2.9827-20.57-0.56852-41.918-13.422-63.003-13.422h-163.28c0-44.373 0.0706-81.119 0-127.51 32.233 0 69.443 3.411 130.27 0 29.567-1.658 45.229-30.959 48.177-43.121l22.205-49.305 9.5658-15.531c5.2275-3.7518 7.5277 2.2542 16.495-13.965 1.0349-7.4403-0.45823-16.903 7.1104-19.116l6.7485-5.9654c-12.859-22.314-1.8116-41.933-3.1636-58.674 4.1338-4.6246 8.5849-7.9799 14.115-7.0199 1.4443-2.1204 7.9486-0.73709 8.1292-3.092 1.9738-25.741 2.6266-40.12 2.8375-62.527-0.4981-5.9291-5.0997-7.7547-12.623-6.6581l-95.175 2.365c-4.9518-1.7769-6.1735 0.89742-7.2404-0.86857-9.6502-15.973-12.049-44.663-6.6282-54.996 1.5932-3.0368 4.7358-2.6761 7.5569-5.8084l61.492 3.51c11.068 1.1364 19.132 4.2212 31.452 4.1056l23.035-6.4861c21.639-16.674 31.632-8.3931 43.942-5.0763 33.195 15.563 71.831-0.35935 108.78-1.0545 15.25-4.858 14.566 2.6776 17.987 7.0199 1.8127 16.329 8.6059 49.857-5.5286 52.996l-103.07-0.79866c-7.108 0.10837-11.245 5.4157-12.729 15.366v-0.00006z" fill="#070000"/>
        <path id="path4065" d="m344.64-279.8c-1.5264 6.9596-2.1345 13.919 2.237 20.879 34.386-2.7614 76.664-4.0844 99.747-8.7297 6.8851-0.98358 19.569-7.4345 0.91883-8.4208-10.15-0.53678-94.381-8.4424-102.9-3.7284z" fill="#fff"/>
        <path id="path4067" d="m627.76-282.96c1.5264 6.9596 2.3981 11.81-1.9734 18.77-34.386-2.7614-79.301-1.4481-102.38-6.0933-6.8851-0.98358-19.569-6.1163-0.91883-8.4208 10.087-1.2464 96.753-8.9697 105.28-4.2556z" fill="#fff"/>
        <path id="path4069" d="m545.6 8.8662c13.98 32.03 39.5 45.428 71.391 60.313 20.588 9.6097 45.1 17.79 64.652 28.687 21.216 11.824 30.488 24.815 41.718 47.593 1.5529 7.331 14.044 27.072 16.726 43.393 5.2473 31.929 9.4005 47.744 10.255 50.143 9.8764 0.062 8.5776 0.95579 13.715-1.0575-0.39531-3.14-9.5506-47.873-10.664-51.926-24.99-90.912-74.28-101.96-130.09-128.26-20.43-9.634-45.93-19.52-60.33-44.315-37.18-64.045-31.36-36.588-17.38-4.5585v-0.0003z" fill="#fff"/>
        <path id="path4071" d="m754.02 330.91 22.295-0.58671c2.4032-11.864-0.29938-51.201-0.9796-63.36-13.285 1.5804-37.193 0.0593-37.193 0.0593l2.4554 66.87 2.0186 102.72s16.229-0.16771 16.133-2.2745c-2.1091-46.4-1.7472-101.94-4.7299-103.43z" fill="#fff"/>
        <path id="path4077" d="m489.3-249.97 12.676 0.74568-2.9827 85.753 20.133 2.9827-1.4914 20.133 0.74568 18.642-2.237 15.659-9.6938-0.74568 2.9827 12.676s2.237 29.827 1.4914 32.81c-0.74569 2.9827-10.439 4.4741-10.439 4.4741l1.4913-30.573-11.931-8.9481 0.74568-14.168 0.74568-35.792-8.2024 0.74568-2.9827-13.422 9.6938-3.7284-0.74568-87.244z" fill="#fff"/>
        <path id="path4079" d="m199.64 109.26v15.999c66.02 0.78073 93.184 0.58753 136.78 0.58753 40.725 2.6347 43.292-16.404-1.0015-16.405l-135.78-0.18189z" fill="#fff"/>
        <path id="path3628" d="m827.84 261.03 1.145 32.593h23.546c4.8485-6.6123 9.9372-17.284-1.4914-32.066l-23.2-0.52727z" fill="#fff"/>
        <path id="path3630" d="m439.14-58.418c26.747 7.318 100.01 5.2818 102.02 4.4695 14.119-5.695 30.214 3.3799-0.72082 4.8582-29.068 1.389-39.325 7.9954-104.7-1.4232-14.892-2.1454-7.7512-10.956 3.4033-7.9045z" fill="#fff"/>
        <path id="path3630-6" d="m774.7 245.59c9.0041 1.9675 33.074-3.513 36.239-4.8956 7.2214-3.1537 9.0553 3.617-0.4231 6.0179-8.9063 2.256-13.765 5.1172-36.657 4.2542-4.6964-0.17717-2.9024-6.1943 0.84053-5.3765z" fill="#fff"/>
        <path id="path2866" d="m617.97 293.63-0.137-31.318h-23.546c-4.8485 6.6123-9.9372 17.284 1.4914 32.066l22.192-0.74724z" fill="#fff"/>
      </g>
      <path id="path3762" stroke="#271a1a" stroke-width="3" d="m408.46 484.4s-9.0856 15.802-24.656 40.656c-0.11028 0.17603-0.20157 0.35432-0.3125 0.53125-0.36912 0.58873-0.74871 1.1826-1.125 1.7812-14.07 22.383-25.058 32.676-47.375 64.125-51.552 72.644-126.63 177.65-124.53 273.53 4.0403 185.01 198 185 198 185-1.9461 0 209.84-0.2771 197.97-185-5.43-84.53-73.05-195.94-129.12-273.52-51.96-71.89-68.85-107.1-68.85-107.1zm-3.4062 212.19c43.425 0.26448 87.289 20.867 99.656 52.906 2.6341 9.2621 8.3464 47.83-8.5 57.719-7.2508 4.2561-5.4046 9.3466-9.9688 17.688-3.1727 9.7126-3.838 16.638 3.5312 37.531 1.575 4.4656-4.4462 6.2754-8.75 8.25-4.9967 2.2925-10.692-4.4007-16.125-3.5625-6.469 0.99796-14.082 3.9691-16.969 9.8438-0.99488 2.0246 0.41298 4.5175 0.90625 6.7188 1.421 6.3413-11.604 13.473-11.625 1.3438-0.0168-10.152-5.6473-7.1411-6.25-0.90625-0.38221 3.9535 1.9404 13.853-5.8438 10.281-3.9034-1.7908-4.3092-6.5339-4.0312-4.4375 0.12658 0.95492-3.9297-2.2539-2.8125 0.28125 2.7252 6.184-9.8125 7.4024-9.8125 4.125 0-3.2387-2.8857-10.042-2.5-7.1562-0.41245-1.9968-1.4865-6.6473-2.2812-5.5625-0.59209 0.80812-0.74404 10.732-1.75 11.938-1.7663 2.1164-7.3732 4.351-9.5312-0.96875-0.48633-1.1989 0.25317-2.9683 0.0625-5.375-0.23302-2.9426-2.9611-2.8586-3.7812-0.5-0.87045 2.5033-0.15304 8.9908-1.5625 9.2188-3.1376 0.50749-4.4361-1.2899-7.1562-2.875-2.0353-1.186-5.2986-0.32224-4.5938-3.2812-0.38766-1.8949 1.2679-3.1566 1.4375-4.8125 0.32032-3.1276-0.4713-6.6378-0.5-6.5625-0.10775-1.2931-3.7036-1.9851-4.4062 3.0312-0.457 3.2625-0.70401 6.246-2 6.25-5.0011 0.0194-6.059-3.5589-3.375-8.5 0.40091-11.401-24.092-10.967-25.031-8.9375-1.0227 2.2087-6.6044 2.8018-12.156 2.1562-5.4836-0.63764-6.8142-5.485-7.0625-14.25-0.1919-6.7718 9.5743-24.25 6.2812-32.188-2.3807-5.7386-4.2759-14.346-11.219-18.781-4.4285-11.436-10.923-41.52-4.1875-57.719 15.608-37.538 53.59-53.14 91.906-52.906zm47.656 96.562c-7.2801 0.0686-14.022 1.0034-20.281 4.625-17.425 10.083-16.497 15.166-8.9062 23.719 9.1679 10.329 23.639 13.21 38.406 8.9062 19.365-5.6437 17.215-36.336-1.75-37.094-2.556-0.1021-5.042-0.17925-7.4688-0.15625zm-91.781 0.0312c-2.3674-0.0228-4.6665 0.0542-6.9062 0.15625-18.961 0.86415-21.178 31.481-1.8125 37.125 14.767 4.3038 29.301 1.3601 38.469-8.9688 7.5911-8.5523 8.5183-13.574-8.9062-23.656-6.259-3.6217-13.742-4.5878-20.844-4.6562zm47.531 32.562c-1.9157-0.0423-2.8569 0.14236-4.125 1.875 0.0901-0.27065-10.196 17.327-11.062 19.594-3.2361 8.4651 6.3923 6.5082 8.0625 4.3125 2.2838-2.0381 1.9149-6.532 7.125-6.5 5.2101 0.0321 5.0616 3.4272 7.0938 6.3438 1.6702 2.1958 11.299 4.1526 8.0625-4.3125-0.86663-2.2669-11.153-19.864-11.062-19.594-1.0369-1.8241-2.178-1.6764-4.0938-1.7188zm-55.062 48.125c1.6566-0.10478 3.893 2.7603 5.25 6.0938 1.2757 3.1338 1.1229 8.9336 2.75 12.219 4.6586 4.6588 5.8952 8.7088 8.5 4.4688 2.5641 0.9226 6.1-0.18845 8.0312 2 0.72581 0.82246-0.12483 3.9035 1.125 5.375l4.25 0.21875c0.75661-7.0387 6.1951-5.0156 7.5938-1.0938l3.5938-0.46875c3.1818-6.8772 8.9752-2.4829 10.938 0.6875l3.0312-0.21875c0.55995-0.60747 0.008-2.4102 1.6875-2.4062 1.5558 0.006 2.2251-2.1112 3.3438 3.2812l4.6875-0.21875c0.79477-2.3012 1.038-5.1786 5.8438-3.4688 1.71 0.29932 2.29 3.5445 4 3.25l3.5938 0.4375c0.12382-10.047 5.1011-8.7305 10.5-6.4688 3.522 2.6779 6.0791 1.8494 7.8125-2.0312l2.6875-12.75c1.6489-7.8323 7.4992-9.5347 7.375 1.8125-0.10532 9.6227-0.48404 19.98 1.125 25.031 2.2964 6.995-3.2565 7.6931-6.4688 10.281-3.8811 0.73486-7.8114 1.4113-10.531 4.4688l-5.5938 6.5c-3.0403 5.6628-8.2056 7.7215-13.625 8.0313-5.7397 1.2188-4.7834 4.677-16.438 4.7187-11.654 0.042-10.668-6.3527-25.156-9.625l-15.219-5.8125c-10.695-0.39023-13.449-3.1825-13.406-18.562 0.0106-3.7896 0.23333-10.069-0.9375-13.844-1.3701-4.4174-2.0938-8.1007-2.4062-13-0.4103-6.4345 0.60076-8.8138 2.0625-8.9062z"/>
    </g>
  </g>
  <metadata>
    <rdf:RDF>
      <cc:Work>
        <dc:format>image/svg+xml</dc:format>
        <dc:type rdf:resource="http://purl.org/dc/dcmitype/StillImage"/>
        <cc:license rdf:resource="http://creativecommons.org/licenses/publicdomain/"/>
        <dc:publisher>
          <cc:Agent rdf:about="http://openclipart.org/">
            <dc:title>Openclipart</dc:title>
          </cc:Agent>
        </dc:publisher>
        <dc:title>Water pollution</dc:title>
        <dc:date>2012-05-02T16:56:08</dc:date>
        <dc:description>This not a personnal drawing but a remix .</dc:description>
        <dc:source>http://openclipart.org/detail/169806/water-pollution-by-cybergedeon-169806</dc:source>
        <dc:creator>
          <cc:Agent>
            <dc:title>dominiquechappard</dc:title>
          </cc:Agent>
        </dc:creator>
        <dc:subject>
          <rdf:Bag>
            <rdf:li>clip art</rdf:li>
            <rdf:li>clipart</rdf:li>
            <rdf:li>danger</rdf:li>
            <rdf:li>drink</rdf:li>
            <rdf:li>ecology</rdf:li>
            <rdf:li>poison</rdf:li>
            <rdf:li>toxin</rdf:li>
            <rdf:li>undrikable</rdf:li>
            <rdf:li>water pollution</rdf:li>
          </rdf:Bag>
        </dc:subject>
      </cc:Work>
      <cc:License rdf:about="http://creativecommons.org/licenses/publicdomain/">
        <cc:permits rdf:resource="http://creativecommons.org/ns#Reproduction"/>
        <cc:permits rdf:resource="http://creativecommons.org/ns#Distribution"/>
        <cc:permits rdf:resource="http://creativecommons.org/ns#DerivativeWorks"/>
      </cc:License>
    </rdf:RDF>
  </metadata>
</svg>
