<?xml version="1.0" standalone="no"?>
<!DOCTYPE svg PUBLIC "-//W3C//DTD SVG 20010904//EN"
 "http://www.w3.org/TR/2001/REC-SVG-20010904/DTD/svg10.dtd">
<svg version="1.0" xmlns="http://www.w3.org/2000/svg"
 width="1280.000000pt" height="1026.000000pt" viewBox="0 0 1280.000000 1026.000000"
 preserveAspectRatio="xMidYMid meet">
<metadata>
Created by potrace 1.15, written by Peter Selinger 2001-2017
</metadata>
<g transform="translate(0.000000,1026.000000) scale(0.100000,-0.100000)"
fill="#000000" stroke="none">
<path d="M2681 9770 c-310 -44 -574 -237 -719 -527 -36 -71 -97 -253 -117
-348 -23 -110 -19 -252 10 -373 29 -122 31 -179 7 -287 -15 -67 -17 -99 -10
-199 12 -165 57 -454 117 -746 142 -698 183 -1200 130 -1600 -66 -507 -148
-833 -304 -1221 -101 -250 -279 -592 -435 -834 -81 -127 -111 -191 -164 -348
-73 -219 -116 -476 -96 -579 29 -151 120 -231 261 -230 79 0 114 16 162 73 65
75 72 180 21 281 -35 69 -64 154 -64 188 0 43 35 159 73 245 39 88 91 185 216
405 193 338 297 560 387 825 101 296 160 526 213 835 46 265 60 435 62 730 1
273 -4 350 -56 795 -14 116 -36 345 -50 510 -14 165 -32 346 -40 403 -16 109
-19 180 -9 206 14 36 32 12 53 -71 55 -223 115 -440 126 -463 7 -14 27 -90 44
-170 56 -260 47 -249 216 -262 120 -9 160 -21 176 -49 12 -24 12 -1431 -1
-1709 -14 -301 -13 -537 3 -550 6 -6 26 -20 43 -30 23 -13 34 -29 39 -57 10
-45 8 -467 -5 -1358 -11 -703 -18 -943 -31 -951 -5 -3 -9 -16 -9 -29 0 -14 -8
-29 -19 -34 -23 -13 -51 -80 -51 -122 0 -49 49 -132 93 -156 19 -10 19 -12 4
-13 -23 0 -90 -34 -106 -54 -13 -15 -15 -24 -26 -128 -6 -55 -8 -58 -33 -58
-32 0 -214 -62 -248 -85 -44 -29 -53 -55 -59 -169 -3 -59 -8 -112 -11 -117 -3
-5 -15 -9 -27 -9 -12 0 -54 -7 -92 -15 -39 -8 -92 -15 -118 -15 -101 0 -420
-94 -567 -167 -99 -49 -126 -68 -195 -137 -57 -58 -92 -103 -120 -158 -23 -45
-46 -78 -55 -78 -9 0 -32 -11 -52 -25 -20 -14 -40 -25 -44 -25 -4 0 -31 -22
-60 -50 -35 -33 -61 -50 -78 -50 -44 0 -94 -56 -145 -164 -27 -56 -51 -118
-55 -139 -4 -20 -20 -65 -36 -100 -38 -79 -45 -119 -31 -168 l12 -39 5367 0
5367 1 -38 35 c-20 19 -51 37 -67 40 -16 4 -37 15 -46 25 -9 11 -22 19 -29 19
-7 0 -20 9 -30 20 -10 11 -28 20 -40 20 -12 0 -30 8 -39 19 -32 35 -127 69
-211 77 -89 7 -262 63 -571 182 -205 79 -274 97 -344 87 -46 -6 -53 -4 -135
45 -124 75 -172 91 -305 100 -123 9 -221 27 -328 60 -37 11 -121 36 -187 54
-98 28 -128 41 -163 71 -24 21 -61 46 -83 57 -74 35 -391 124 -489 137 -36 5
-102 17 -148 26 -75 16 -89 17 -160 3 -61 -12 -98 -13 -182 -5 -92 8 -108 13
-140 38 -46 37 -167 56 -246 38 -28 -6 -70 -8 -95 -5 -24 4 -62 9 -84 12 -57
8 -181 -21 -227 -52 l-38 -27 -60 23 c-38 14 -73 21 -97 18 -23 -3 -47 1 -60
10 -27 17 -145 19 -186 3 -16 -6 -52 -11 -82 -11 -30 0 -66 -5 -82 -11 -30
-11 -146 -34 -231 -44 -42 -6 -411 -7 -702 -3 -30 0 -181 -2 -335 -5 l-280 -6
-29 40 c-55 78 -196 167 -290 184 -38 6 -100 40 -143 78 -20 18 -22 18 -47 2
-24 -16 -26 -16 -32 -1 -4 10 -3 38 2 64 13 72 10 168 -5 186 -30 36 -182 93
-292 111 l-35 5 -13 93 c-11 88 -21 109 -54 120 -6 2 7 37 28 79 37 75 37 78
25 128 -7 28 -22 63 -34 78 -50 63 -49 42 -37 603 6 288 11 701 11 917 -1 216
1 396 4 400 8 13 10 425 2 450 -4 12 -15 22 -24 22 -27 0 5 18 56 31 62 17 72
37 79 174 8 148 13 155 114 155 67 0 72 2 97 31 l26 32 854 -6 c875 -6 867 -5
894 -42 4 -5 8 -42 8 -81 0 -58 -4 -74 -20 -89 -26 -24 -26 -76 0 -100 11 -10
20 -24 20 -31 0 -7 4 -15 9 -19 28 -17 186 -25 379 -19 194 6 212 9 212 25 0
10 4 20 9 23 4 3 14 27 21 52 13 44 12 48 -7 63 -18 15 -20 33 -26 161 -7 154
-21 228 -61 326 l-25 61 21 69 c11 38 24 74 28 79 16 20 -42 109 -88 134 -39
21 -60 13 -81 -28 -26 -51 -78 -94 -105 -88 -12 3 -66 17 -121 31 -81 22 -145
30 -340 42 -497 30 -956 65 -1115 84 -91 10 -223 24 -295 30 -127 12 -131 13
-165 45 -29 27 -50 36 -119 50 -47 9 -93 20 -102 25 -24 13 -32 125 -24 330 4
91 8 212 10 270 7 217 25 463 36 476 5 7 29 15 52 19 76 12 107 26 122 55 34
66 6 149 -58 169 -17 5 -77 13 -132 16 -55 3 -129 10 -165 15 -36 5 -119 12
-185 15 -66 2 -154 9 -195 14 -41 6 -85 10 -97 11 -17 0 -23 7 -27 33 -7 41
-34 1274 -38 1708 l-3 326 36 34 c30 28 39 47 53 106 19 85 20 109 5 154 -42
123 -241 182 -649 193 -107 3 -224 1 -259 -4z m370 -410 c70 -21 155 -44 190
-51 35 -6 69 -17 76 -23 35 -32 43 -169 68 -1121 13 -517 21 -943 17 -947 -4
-4 -115 -9 -247 -10 -227 -3 -243 -2 -286 18 -62 29 -81 64 -119 219 -57 234
-233 794 -273 872 -10 18 -17 40 -17 50 0 44 -26 101 -86 190 -83 122 -92 139
-100 201 -12 93 30 247 101 369 33 56 131 154 189 188 56 33 166 73 229 84 70
13 111 7 258 -39z"/>
</g>
</svg>
